<?xml version="1.0" encoding="UTF-8" standalone="no"?>
<!-- Created with Inkscape (http://www.inkscape.org/) -->

<svg
   width="210mm"
   height="297mm"
   viewBox="0 0 210 297"
   version="1.1"
   id="svg1"
   inkscape:version="1.3.1 (9b9bdc1480, 2023-11-25, custom)"
   sodipodi:docname="engine-svg.svg"
   xmlns:inkscape="http://www.inkscape.org/namespaces/inkscape"
   xmlns:sodipodi="http://sodipodi.sourceforge.net/DTD/sodipodi-0.dtd"
   xmlns="http://www.w3.org/2000/svg"
   xmlns:svg="http://www.w3.org/2000/svg">
  <sodipodi:namedview
     id="namedview1"
     pagecolor="#505050"
     bordercolor="#eeeeee"
     borderopacity="1"
     inkscape:showpageshadow="0"
     inkscape:pageopacity="0"
     inkscape:pagecheckerboard="0"
     inkscape:deskcolor="#505050"
     inkscape:document-units="mm"
     inkscape:zoom="0.72248176"
     inkscape:cx="373.71186"
     inkscape:cy="514.19983"
     inkscape:window-width="1452"
     inkscape:window-height="749"
     inkscape:window-x="129"
     inkscape:window-y="226"
     inkscape:window-maximized="0"
     inkscape:current-layer="layer1" />
  <defs
     id="defs1" />
  <g
     inkscape:label="Layer 1"
     inkscape:groupmode="layer"
     id="layer1">
    <rect
       style="opacity:1;fill:#000000;fill-opacity:0.988241;stroke-width:0.238657"
       id="rect1"
       width="125"
       height="50"
       x="27.169147"
       y="163.77065" />
    <path
       id="path1"
       style="opacity:1;fill:#000000;fill-opacity:0.988241;stroke-width:0.26707"
       d="m 44.500126,-110 a 12.5,12.5 0 0 1 -12.500012,-12.50002 12.5,12.5 0 0 1 12.500012,-12.50001 12.5,12.5 0 0 1 12.500012,12.50001 A 12.5,12.5 0 0 1 44.500126,-110 Z m 29.999719,0 a 12.5,12.5 0 0 1 -12.500012,-12.50002 12.5,12.5 0 0 1 12.500012,-12.50001 12.5,12.5 0 0 1 12.500013,12.50001 A 12.5,12.5 0 0 1 74.499845,-110 Z m 28.000355,0 a 12.5,12.5 0 0 1 -12.500009,-12.50002 12.5,12.5 0 0 1 12.500009,-12.50001 12.5,12.5 0 0 1 12.50002,12.50001 A 12.5,12.5 0 0 1 102.5002,-110 Z m 29.99972,0 a 12.5,12.5 0 0 1 -12.50001,-12.50002 12.5,12.5 0 0 1 12.50001,-12.50001 12.5,12.5 0 0 1 12.50001,12.50001 A 12.5,12.5 0 0 1 132.49992,-110 Z M 27.024696,-100 H 152.0247 v -50 H 27.024696 Z"
       transform="scale(1,-1)" />
    <path
       id="path1-61"
       style="opacity:1;fill:#000000;fill-opacity:0.988241;stroke-width:0.213656"
       d="M 44.048474 -64.78726 A 10 10 0 0 1 34.048568 -74.787166 A 10 10 0 0 1 44.048474 -84.78759 A 10 10 0 0 1 54.048381 -74.787166 A 10 10 0 0 1 44.048474 -64.78726 z M 74.048193 -64.78726 A 10 10 0 0 1 64.048287 -74.787166 A 10 10 0 0 1 74.048193 -84.78759 A 10 10 0 0 1 84.0481 -74.787166 A 10 10 0 0 1 74.048193 -64.78726 z M 102.04855 -64.78726 A 10 10 0 0 1 92.048128 -74.787166 A 10 10 0 0 1 102.04855 -84.78759 A 10 10 0 0 1 112.04846 -74.787166 A 10 10 0 0 1 102.04855 -64.78726 z M 132.04827 -64.78726 A 10 10 0 0 1 122.04836 -74.787166 A 10 10 0 0 1 132.04827 -84.78759 A 10 10 0 0 1 142.04818 -74.787166 A 10 10 0 0 1 132.04827 -64.78726 z "
       transform="scale(1,-1)" />
    <path
       id="rect2"
       style="opacity:1;fill:#000000;fill-opacity:0.988241;stroke-width:0.290445"
       d="M 40.000142 30.000236 L 40.000142 54.999744 L 50.000049 54.999744 L 50.000049 30.000236 L 40.000142 30.000236 z M 69.585417 30.000236 L 69.585417 54.999744 L 79.585323 54.999744 L 79.585323 30.000236 L 69.585417 30.000236 z M 97.387854 30.000236 L 97.387854 54.999744 L 107.38828 54.999744 L 107.38828 30.000236 L 97.387854 30.000236 z M 127.22996 30.000236 L 127.22996 54.999744 L 137.23038 54.999744 L 137.23038 30.000236 L 127.22996 30.000236 z " />
  </g>
</svg>
