<?xml version="1.0" encoding="UTF-8" standalone="no"?>
<!-- Created with Inkscape (http://www.inkscape.org/) -->

<svg
   width="70mm"
   height="109.84359mm"
   viewBox="0 0 70 109.84359"
   version="1.1"
   id="svg1"
   inkscape:version="1.3.1 (9b9bdc1480, 2023-11-25, custom)"
   sodipodi:docname="workstation1-placeholder.svg"
   xmlns:inkscape="http://www.inkscape.org/namespaces/inkscape"
   xmlns:sodipodi="http://sodipodi.sourceforge.net/DTD/sodipodi-0.dtd"
   xmlns="http://www.w3.org/2000/svg"
   xmlns:svg="http://www.w3.org/2000/svg">
  <sodipodi:namedview
     id="namedview1"
     pagecolor="#505050"
     bordercolor="#eeeeee"
     borderopacity="1"
     inkscape:showpageshadow="0"
     inkscape:pageopacity="0"
     inkscape:pagecheckerboard="0"
     inkscape:deskcolor="#505050"
     inkscape:document-units="mm"
     inkscape:zoom="0.72248176"
     inkscape:cx="396.5498"
     inkscape:cy="561.25984"
     inkscape:window-width="1854"
     inkscape:window-height="1011"
     inkscape:window-x="66"
     inkscape:window-y="32"
     inkscape:window-maximized="1"
     inkscape:current-layer="layer1" />
  <defs
     id="defs1" />
  <g
     inkscape:label="Layer 1"
     inkscape:groupmode="layer"
     id="layer1"
     transform="translate(-72.260004,-69.956533)">
    <g
       id="g13"
       transform="matrix(0.55873135,0,0,0.55873135,44.482016,68.839071)"
       style="opacity:0.75;fill:#808080">
      <rect
         style="fill:#808080;fill-opacity:0.988241;stroke-width:0.0552905"
         id="rect1-7-8"
         width="7.5"
         height="50"
         x="105.35"
         y="100" />
      <g
         id="g3"
         transform="matrix(0.5,0,0,0.5,59.001703,23.283188)"
         style="fill:#808080">
        <rect
           style="fill:#808080;fill-opacity:0.988241;stroke-width:0.110581"
           id="rect1-7"
           width="15"
           height="100"
           x="92.696594"
           y="53.433624" />
        <circle
           style="fill:#808080;fill-opacity:0.988241;stroke-width:0.203846"
           id="path1-5"
           cx="99.196594"
           cy="98.433624"
           r="20" />
      </g>
      <g
         inkscape:label="Layer 1"
         id="layer1-6"
         transform="matrix(0.78619702,0,0,1.1863057,30.882001,-90.180398)"
         style="fill:#808080">
        <rect
           style="fill:#808080;stroke-width:0.264583"
           id="rect1-12"
           width="158.99323"
           height="11.928314"
           x="24.317059"
           y="94.036133" />
        <ellipse
           style="fill:#808080;stroke-width:0.264583"
           id="path1-93"
           cx="100.03015"
           cy="98.777573"
           rx="21.554174"
           ry="21.073826" />
      </g>
      <path
         id="path10"
         style="fill:#808080;stroke-width:0.264583"
         d="m 109.24174,148.59459 a 16.945828,25 0 0 0 -16.466695,19.37556 h -43.05887 v 14.15056 h 43.655733 a 16.945828,25 0 0 0 15.869832,16.47393 16.945828,25 0 0 0 15.86983,-16.47393 h 49.60472 v -14.15056 h -48.9722 a 16.945828,25 0 0 0 -16.50235,-19.37556 z m 0.077,15.78095 a 10,10 0 0 1 7.6631,3.59461 10,10 0 0 1 2.33681,6.4053 10,10 0 0 1 -3.77703,7.74526 10,10 0 0 1 -6.22288,2.25464 10,10 0 0 1 -6.22287,-2.25464 10,10 0 0 1 -3.777026,-7.74526 10,10 0 0 1 2.437576,-6.4053 10,10 0 0 1 7.56232,-3.59461 z m -16.902846,11.82047 a 16.945828,25 0 0 0 0.03824,0.49196 16.945828,25 0 0 1 -0.03824,-0.49196 z m 33.651686,0 a 16.945828,25 0 0 1 -0.0382,0.49196 16.945828,25 0 0 0 0.0382,-0.49196 z m -33.302353,2.95796 a 16.945828,25 0 0 0 0.0832,0.47284 16.945828,25 0 0 1 -0.0832,-0.47284 z m 32.953023,0 a 16.945828,25 0 0 1 -0.0832,0.47284 16.945828,25 0 0 0 0.0832,-0.47284 z" />
    </g>
  </g>
</svg>
