<?xml version="1.0" encoding="UTF-8" standalone="no"?>
<!-- Created with Inkscape (http://www.inkscape.org/) -->

<svg
   width="28.90057mm"
   height="50.000042mm"
   viewBox="0 0 28.90057 50.000042"
   version="1.1"
   id="svg1"
   inkscape:version="1.3.1 (9b9bdc1480, 2023-11-25, custom)"
   sodipodi:docname="capital.svg"
   xmlns:inkscape="http://www.inkscape.org/namespaces/inkscape"
   xmlns:sodipodi="http://sodipodi.sourceforge.net/DTD/sodipodi-0.dtd"
   xmlns="http://www.w3.org/2000/svg"
   xmlns:svg="http://www.w3.org/2000/svg">
  <sodipodi:namedview
     id="namedview1"
     pagecolor="#505050"
     bordercolor="#eeeeee"
     borderopacity="1"
     inkscape:showpageshadow="0"
     inkscape:pageopacity="0"
     inkscape:pagecheckerboard="0"
     inkscape:deskcolor="#505050"
     inkscape:document-units="mm"
     inkscape:zoom="0.67316489"
     inkscape:cx="373.60831"
     inkscape:cy="441.94224"
     inkscape:window-width="1850"
     inkscape:window-height="1011"
     inkscape:window-x="70"
     inkscape:window-y="32"
     inkscape:window-maximized="1"
     inkscape:current-layer="layer1" />
  <defs
     id="defs1" />
  <g
     inkscape:label="Layer 1"
     inkscape:groupmode="layer"
     id="layer1"
     transform="translate(-80.425455,-70.84033)">
    <path
       id="path12"
       style="fill:#000000;fill-opacity:0.988241;stroke-width:0.201121"
       d="m 99.401096,70.840333 a 15,25 0 0 0 -14.31076,17.6537 h -3.58996 v 5.00021 h 2.99258 a 15,25 0 0 0 -0.092,2.34611 15,25 0 0 0 0.0904,2.30218 h -4.0659 v 5.000217 h 4.65605 a 15,25 0 0 0 14.31954,17.69762 15,25 0 0 0 9.924974,-6.32622 13.5,22.5 0 0 1 -7.25382,3.53105 13.5,22.5 0 0 1 -12.678294,-14.90245 H 100.42579 V 98.142533 H 88.674566 a 13.5,22.5 0 0 1 -0.10232,-2.59725 13.5,22.5 0 0 1 0.0806,-2.05104 h 12.847274 v -5.00021 H 89.282256 a 13.5,22.5 0 0 1 12.789924,-15.44919 13.5,22.5 0 0 1 5.85287,2.23191 15,25 0 0 0 -8.524024,-4.43642 z" />
  </g>
</svg>
