<?xml version="1.0" encoding="UTF-8" standalone="no"?>
<!-- Created with Inkscape (http://www.inkscape.org/) -->

<svg
   width="210mm"
   height="297mm"
   viewBox="0 0 210 297"
   version="1.1"
   id="svg1"
   inkscape:version="1.3.1 (9b9bdc1480, 2023-11-25, custom)"
   sodipodi:docname="in-game-stats-icons.svg"
   xmlns:inkscape="http://www.inkscape.org/namespaces/inkscape"
   xmlns:sodipodi="http://sodipodi.sourceforge.net/DTD/sodipodi-0.dtd"
   xmlns="http://www.w3.org/2000/svg"
   xmlns:svg="http://www.w3.org/2000/svg">
  <sodipodi:namedview
     id="namedview1"
     pagecolor="#505050"
     bordercolor="#eeeeee"
     borderopacity="1"
     inkscape:showpageshadow="0"
     inkscape:pageopacity="0"
     inkscape:pagecheckerboard="0"
     inkscape:deskcolor="#505050"
     inkscape:document-units="mm"
     inkscape:zoom="0.67316489"
     inkscape:cx="373.60831"
     inkscape:cy="441.94224"
     inkscape:window-width="1850"
     inkscape:window-height="1011"
     inkscape:window-x="70"
     inkscape:window-y="32"
     inkscape:window-maximized="1"
     inkscape:current-layer="layer1" />
  <defs
     id="defs1" />
  <g
     inkscape:label="Layer 1"
     inkscape:groupmode="layer"
     id="layer1">
    <path
       id="path12"
       style="fill:#000000;fill-opacity:0.988241;stroke-width:0.201121"
       d="m 121.99728,81.453333 a 15,25 0 0 0 -14.31076,17.6537 h -3.58997 v 5.000207 h 2.99259 a 15,25 0 0 0 -0.092,2.34612 15,25 0 0 0 0.0904,2.30218 h -4.06591 v 5.00021 h 4.65606 a 15,25 0 0 0 14.31954,17.69762 15,25 0 0 0 9.92497,-6.32622 13.5,22.5 0 0 1 -7.25382,3.53105 13.5,22.5 0 0 1 -12.67829,-14.90245 h 11.03188 v -5.00021 h -11.75122 a 13.5,22.5 0 0 1 -0.10232,-2.59725 13.5,22.5 0 0 1 0.0806,-2.05105 h 12.84727 v -5.000207 h -12.21786 a 13.5,22.5 0 0 1 12.78992,-15.44919 13.5,22.5 0 0 1 5.85287,2.23191 15,25 0 0 0 -8.52402,-4.43642 z" />
    <path
       id="rect3"
       style="fill:#008000;fill-opacity:0.988241;stroke-width:0.199531"
       d="m 72.40232,83.901697 -20.985886,4.07294 8.081986,10.1959 -8.433476,15.995193 -5.84639,-7.37614 0.003,-0.006 -5.84365,-7.372523 -0.004,0.007 -0.0331,-0.0422 -4.7658,9.039193 0.0331,0.0416 -9.528484,18.07234 5.843664,7.37252 9.52848,-18.07234 11.654196,14.70284 0.29343,-0.55696 0.0362,0.0458 12.90585,-24.4774 9.11114,11.49426 0.62699,-0.12175 z" />
    <g
       id="g14"
       transform="translate(72.78155,-39.943935)">
      <circle
         style="fill:#ff0000;fill-opacity:0.988241;stroke-width:0.166524"
         id="path1-3"
         cx="46.257694"
         cy="76.194992"
         r="25" />
      <path
         id="rect2"
         style="fill:#ffffff;fill-opacity:0.988241;stroke-width:0.155229"
         d="m 53.351253,61.907594 -6.93777,7.20248 -7.20211,-6.93742 -6.93742,7.20211 7.20211,6.93742 -6.93742,7.2021 7.20249,6.93778 6.93741,-7.20211 7.20211,6.93742 6.93742,-7.20211 -7.20211,-6.93742 6.93777,-7.20247 z" />
    </g>
    <g
       id="g2"
       transform="translate(-37.140206,-54.12888)">
      <circle
         style="fill:#00ff00;fill-opacity:0.988241;stroke-width:0.166524"
         id="path1"
         cx="89.444427"
         cy="91.027565"
         r="25" />
      <path
         id="rect1"
         style="fill:#f2f2f2;fill-opacity:0.988241;stroke-width:0.120785"
         d="m 101.34842,77.212559 -14.637679,14.0861 -7.19658,-7.4784 -7.20546,6.93394 13.86823,14.411301 0.2264,-0.21787 0.26229,0.27256 21.616739,-20.802161 z" />
    </g>
  </g>
</svg>
