<?xml version="1.0" encoding="UTF-8" standalone="no"?>
<!-- Created with Inkscape (http://www.inkscape.org/) -->

<svg
   width="210mm"
   height="297mm"
   viewBox="0 0 210 297"
   version="1.1"
   id="svg1"
   inkscape:version="1.3.1 (9b9bdc1480, 2023-11-25, custom)"
   sodipodi:docname="workstation2.svg"
   xmlns:inkscape="http://www.inkscape.org/namespaces/inkscape"
   xmlns:sodipodi="http://sodipodi.sourceforge.net/DTD/sodipodi-0.dtd"
   xmlns="http://www.w3.org/2000/svg"
   xmlns:svg="http://www.w3.org/2000/svg">
  <sodipodi:namedview
     id="namedview1"
     pagecolor="#505050"
     bordercolor="#eeeeee"
     borderopacity="1"
     inkscape:showpageshadow="0"
     inkscape:pageopacity="0"
     inkscape:pagecheckerboard="0"
     inkscape:deskcolor="#505050"
     inkscape:document-units="mm"
     inkscape:zoom="0.72248176"
     inkscape:cx="397.24186"
     inkscape:cy="561.25984"
     inkscape:window-width="1850"
     inkscape:window-height="1011"
     inkscape:window-x="70"
     inkscape:window-y="32"
     inkscape:window-maximized="1"
     inkscape:current-layer="layer1" />
  <defs
     id="defs1" />
  <g
     inkscape:label="Layer 1"
     inkscape:groupmode="layer"
     id="layer1">
    <g
       inkscape:label="Layer 1"
       id="layer1-26"
       transform="matrix(1.0883145,0,0,1.0883145,12.921965,6.5086418)">
      <rect
         style="opacity:1;fill:#000000;fill-opacity:0.988241;stroke-width:0.238657"
         id="rect1-1"
         width="125"
         height="50"
         x="27.169147"
         y="163.77065" />
      <path
         id="path1-8"
         style="opacity:1;fill:#000000;fill-opacity:0.988241;stroke-width:0.26707"
         d="m 44.500126,-110 a 12.5,12.5 0 0 1 -12.500012,-12.50002 12.5,12.5 0 0 1 12.500012,-12.50001 12.5,12.5 0 0 1 12.500012,12.50001 A 12.5,12.5 0 0 1 44.500126,-110 Z m 29.999719,0 a 12.5,12.5 0 0 1 -12.500012,-12.50002 12.5,12.5 0 0 1 12.500012,-12.50001 12.5,12.5 0 0 1 12.500013,12.50001 A 12.5,12.5 0 0 1 74.499845,-110 Z m 28.000355,0 a 12.5,12.5 0 0 1 -12.500009,-12.50002 12.5,12.5 0 0 1 12.500009,-12.50001 12.5,12.5 0 0 1 12.50002,12.50001 A 12.5,12.5 0 0 1 102.5002,-110 Z m 29.99972,0 a 12.5,12.5 0 0 1 -12.50001,-12.50002 12.5,12.5 0 0 1 12.50001,-12.50001 12.5,12.5 0 0 1 12.50001,12.50001 A 12.5,12.5 0 0 1 132.49992,-110 Z M 27.024696,-100 H 152.0247 v -50 H 27.024696 Z"
         transform="scale(1,-1)" />
      <path
         id="path1-61"
         style="opacity:1;fill:#000000;fill-opacity:0.988241;stroke-width:0.213656"
         d="m 44.048474,-64.78726 a 10,10 0 0 1 -9.999906,-9.999906 10,10 0 0 1 9.999906,-10.000424 10,10 0 0 1 9.999907,10.000424 10,10 0 0 1 -9.999907,9.999906 z m 29.999719,0 a 10,10 0 0 1 -9.999906,-9.999906 10,10 0 0 1 9.999906,-10.000424 10,10 0 0 1 9.999907,10.000424 10,10 0 0 1 -9.999907,9.999906 z m 28.000357,0 a 10,10 0 0 1 -10.000422,-9.999906 10,10 0 0 1 10.000422,-10.000424 10,10 0 0 1 9.99991,10.000424 10,10 0 0 1 -9.99991,9.999906 z m 29.99972,0 a 10,10 0 0 1 -9.99991,-9.999906 10,10 0 0 1 9.99991,-10.000424 10,10 0 0 1 9.99991,10.000424 10,10 0 0 1 -9.99991,9.999906 z"
         transform="scale(1,-1)" />
      <path
         id="rect2-7"
         style="opacity:1;fill:#000000;fill-opacity:0.988241;stroke-width:0.290445"
         d="m 40.000142,30.000236 v 24.999508 h 9.999907 V 30.000236 Z m 29.585275,0 v 24.999508 h 9.999906 V 30.000236 Z m 27.802437,0 V 54.999744 H 107.38828 V 30.000236 Z m 29.842106,0 v 24.999508 h 10.00042 V 30.000236 Z" />
    </g>
  </g>
</svg>
