<?xml version="1.0" encoding="UTF-8" standalone="no"?>
<!-- Created with Inkscape (http://www.inkscape.org/) -->

<svg
   width="210mm"
   height="297mm"
   viewBox="0 0 210 297"
   version="1.1"
   id="svg1"
   inkscape:version="1.3.1 (9b9bdc1480, 2023-11-25, custom)"
   sodipodi:docname="workstation1.svg"
   xmlns:inkscape="http://www.inkscape.org/namespaces/inkscape"
   xmlns:sodipodi="http://sodipodi.sourceforge.net/DTD/sodipodi-0.dtd"
   xmlns="http://www.w3.org/2000/svg"
   xmlns:svg="http://www.w3.org/2000/svg">
  <sodipodi:namedview
     id="namedview1"
     pagecolor="#505050"
     bordercolor="#eeeeee"
     borderopacity="1"
     inkscape:showpageshadow="0"
     inkscape:pageopacity="0"
     inkscape:pagecheckerboard="0"
     inkscape:deskcolor="#505050"
     inkscape:document-units="mm"
     inkscape:zoom="0.35171597"
     inkscape:cx="102.35532"
     inkscape:cy="592.80788"
     inkscape:window-width="1850"
     inkscape:window-height="1011"
     inkscape:window-x="70"
     inkscape:window-y="32"
     inkscape:window-maximized="1"
     inkscape:current-layer="layer1" />
  <defs
     id="defs1" />
  <g
     inkscape:label="Layer 1"
     inkscape:groupmode="layer"
     id="layer1">
    <rect
       style="fill:#000000;fill-opacity:0.988241;stroke-width:0.0552905"
       id="rect1-7-8"
       width="7.5000005"
       height="50"
       x="101.30407"
       y="138.39368" />
    <g
       id="g3"
       transform="matrix(0.5,0,0,0.5,55.616718,44.722188)">
      <rect
         style="fill:#000000;fill-opacity:0.988241;stroke-width:0.110581"
         id="rect1-7"
         width="15"
         height="100"
         x="92.696594"
         y="53.433624" />
      <circle
         style="fill:#000000;fill-opacity:0.988241;stroke-width:0.203846"
         id="path1-5"
         cx="99.196594"
         cy="98.433624"
         r="20" />
    </g>
    <g
       inkscape:label="Layer 1"
       id="layer1-6"
       transform="matrix(0.78619702,0,0,1.1863057,25.918472,-81.062394)">
      <rect
         style="fill:#000000;stroke-width:0.264583"
         id="rect1-12"
         width="158.99323"
         height="11.928314"
         x="24.317059"
         y="94.036133" />
      <ellipse
         style="fill:#000000;stroke-width:0.264583"
         id="path1-93"
         cx="100.03015"
         cy="98.777573"
         rx="21.554174"
         ry="21.073826" />
    </g>
    <path
       id="path10"
       style="stroke-width:0.264583"
       d="M 104.07641,210.71923 A 16.94581,24.999974 0 0 0 87.609723,230.09476 H 44.550898 v 14.15056 h 43.655688 a 16.94581,24.999974 0 0 0 15.869824,16.47391 16.94581,24.999974 0 0 0 15.86981,-16.47391 h 49.60467 v -14.15056 h -48.97215 a 16.94581,24.999974 0 0 0 -16.50233,-19.37553 z m 0.077,15.78093 a 9.9999895,9.9999895 0 0 1 7.6631,3.5946 9.9999895,9.9999895 0 0 1 2.33681,6.4053 9.9999895,9.9999895 0 0 1 -3.77704,7.74526 9.9999895,9.9999895 0 0 1 -6.22287,2.25463 9.9999895,9.9999895 0 0 1 -6.222863,-2.25463 9.9999895,9.9999895 0 0 1 -3.777022,-7.74526 9.9999895,9.9999895 0 0 1 2.437574,-6.4053 9.9999895,9.9999895 0 0 1 7.562311,-3.5946 z m -16.902828,11.82046 a 16.94581,24.999974 0 0 0 0.03824,0.49195 16.94581,24.999974 0 0 1 -0.03824,-0.49195 z m 33.651658,0 a 16.94581,24.999974 0 0 1 -0.0382,0.49195 16.94581,24.999974 0 0 0 0.0382,-0.49195 z m -33.302325,2.95796 a 16.94581,24.999974 0 0 0 0.0832,0.47284 16.94581,24.999974 0 0 1 -0.0832,-0.47284 z m 32.952995,0 a 16.94581,24.999974 0 0 1 -0.0832,0.47284 16.94581,24.999974 0 0 0 0.0832,-0.47284 z" />
  </g>
</svg>
