<?xml version="1.0" encoding="UTF-8" standalone="no"?>
<!-- Created with Inkscape (http://www.inkscape.org/) -->

<svg
   width="210mm"
   height="297mm"
   viewBox="0 0 210 297"
   version="1.1"
   id="svg1"
   inkscape:version="1.3.1 (9b9bdc1480, 2023-11-25, custom)"
   sodipodi:docname="workstation3.svg"
   xmlns:inkscape="http://www.inkscape.org/namespaces/inkscape"
   xmlns:sodipodi="http://sodipodi.sourceforge.net/DTD/sodipodi-0.dtd"
   xmlns="http://www.w3.org/2000/svg"
   xmlns:svg="http://www.w3.org/2000/svg">
  <sodipodi:namedview
     id="namedview1"
     pagecolor="#505050"
     bordercolor="#eeeeee"
     borderopacity="1"
     inkscape:showpageshadow="0"
     inkscape:pageopacity="0"
     inkscape:pagecheckerboard="0"
     inkscape:deskcolor="#505050"
     inkscape:document-units="mm"
     inkscape:zoom="0.72248176"
     inkscape:cx="397.24186"
     inkscape:cy="561.25984"
     inkscape:window-width="1850"
     inkscape:window-height="1011"
     inkscape:window-x="70"
     inkscape:window-y="32"
     inkscape:window-maximized="1"
     inkscape:current-layer="layer1" />
  <defs
     id="defs1" />
  <g
     inkscape:label="Layer 1"
     inkscape:groupmode="layer"
     id="layer1">
    <g
       id="g2"
       transform="matrix(0.90882532,0,0,0.90882532,201.74726,-210.22664)">
      <g
         id="g18"
         transform="translate(-136.60614,381.34886)">
        <rect
           style="fill:#808080;fill-opacity:0.988241;stroke-width:0.158421"
           id="rect3"
           width="19.240204"
           height="50"
           x="11.63148"
           y="89.666451" />
        <rect
           style="fill:#808080;fill-opacity:0.988241;stroke-width:0.16978"
           id="rect4"
           width="34.557579"
           height="15"
           x="22.073898"
           y="124.81992" />
        <rect
           style="fill:#ff0000;fill-opacity:0.988241;stroke-width:0.239857"
           id="rect5"
           width="4.7905183"
           height="7.5388865"
           x="28.800249"
           y="122.43751" />
        <rect
           style="fill:#000000;fill-opacity:0.988241;stroke-width:0.239857"
           id="rect6"
           width="6"
           height="5.9588537"
           x="28.334318"
           y="124.47867" />
      </g>
      <ellipse
         style="fill:#000000;fill-opacity:0.988241;stroke-width:0.268264"
         id="path1-9"
         cx="-105.41186"
         cy="326.10449"
         rx="87.5"
         ry="25" />
      <path
         id="path3"
         style="fill:#999999;fill-opacity:0.988241;stroke-width:0.235871"
         d="m -105.43167,358.05702 a 25,25 0 0 0 -25.00003,25.00003 25,25 0 0 0 25.00003,25.00002 25,25 0 0 0 25.000017,-25.00002 25,25 0 0 0 -25.000017,-25.00003 z m -0.11937,2.34663 a 22.5,22.5 0 0 1 21.154257,14.95723 h -42.308527 a 22.5,22.5 0 0 1 21.15427,-14.95723 z m -22.23224,25.90333 h 16.99638 v 18.40766 a 22.5,22.5 0 0 1 -16.99638,-18.40766 z m 26.99629,0 h 17.468177 a 22.5,22.5 0 0 1 -17.468177,18.52083 z" />
      <path
         d="m -118.38338,420.2746 a 9.0684501,19.661976 0 0 1 -7.83702,16.16077 v 19.93832 h 29.999999 V 420.2746 Z"
         style="fill-opacity:0.988241;stroke-width:0.234604"
         id="path21-3" />
    </g>
  </g>
</svg>
